<svg width="11" height="10" viewBox="0 0 11 10" fill="none" xmlns="http://www.w3.org/2000/svg">
<path fill-rule="evenodd" clip-rule="evenodd" d="M3.47086 5C3.47086 3.61928 4.59014 2.5 5.97086 2.5C7.35157 2.5 8.47086 3.61928 8.47086 5C8.47086 6.38072 7.35157 7.5 5.97086 7.5C4.59014 7.5 3.47086 6.38072 3.47086 5ZM5.97086 3.5C5.14242 3.5 4.47086 4.17157 4.47086 5C4.47086 5.82843 5.14242 6.5 5.97086 6.5C6.79929 6.5 7.47086 5.82843 7.47086 5C7.47086 4.17157 6.79929 3.5 5.97086 3.5Z" fill="#261447"/>
<path d="M9.22086 2.25C9.22086 2.52615 8.99701 2.75 8.72086 2.75C8.44471 2.75 8.22086 2.52615 8.22086 2.25C8.22086 1.97385 8.44471 1.75 8.72086 1.75C8.99701 1.75 9.22086 1.97385 9.22086 2.25Z" fill="#261447"/>
<path fill-rule="evenodd" clip-rule="evenodd" d="M0.970856 2.5C0.970856 1.11929 2.09014 0 3.47086 0H8.47086C9.85157 0 10.9709 1.11929 10.9709 2.5V7.5C10.9709 8.88072 9.85157 10 8.47086 10H3.47086C2.09014 10 0.970856 8.88072 0.970856 7.5V2.5ZM3.47086 1C2.64243 1 1.97086 1.67157 1.97086 2.5V7.5C1.97086 8.32843 2.64243 9 3.47086 9H8.47086C9.29929 9 9.97086 8.32843 9.97086 7.5V2.5C9.97086 1.67157 9.29929 1 8.47086 1H3.47086Z" fill="#261447"/>
</svg>
