<svg width="10" height="10" viewBox="0 0 10 10" fill="none" xmlns="http://www.w3.org/2000/svg">
<path fill-rule="evenodd" clip-rule="evenodd" d="M0.569497 0.0199596C0.344368 0.0694031 0.149526 0.226267 0.0503398 0.437914L0 0.545334V4.999V9.45267L0.0610202 9.57662C0.137949 9.7329 0.296288 9.88398 0.449846 9.94765L0.560161 9.99338L4.9014 9.9987C7.99088 10.0025 9.27732 9.99812 9.3629 9.98354C9.60709 9.94192 9.81554 9.78332 9.92052 9.55931L9.97086 9.45189V4.99861V0.545334L9.91677 0.428205C9.84702 0.277167 9.6767 0.114085 9.52159 0.0497975L9.4107 0.00384566L5.04144 0.000634071C1.68625 -0.00184931 0.648367 0.00263198 0.569497 0.0199596ZM2.39726 1.39605C2.60999 1.44508 2.83697 1.61317 2.95416 1.80842C3.12614 2.09506 3.10301 2.47862 2.89739 2.74889C2.8017 2.87467 2.65791 2.98448 2.51587 3.04023C2.37293 3.09632 2.08324 3.10146 1.93698 3.05047C1.3397 2.84225 1.16037 2.07778 1.60462 1.63354C1.81606 1.4221 2.11795 1.33165 2.39726 1.39605ZM7.33569 3.69831C8.05541 3.8868 8.40032 4.39414 8.48626 5.39072C8.4965 5.50927 8.50486 6.25578 8.50494 7.0572L8.5051 8.50895H7.76902H7.03291L7.02466 7.11322C7.01582 5.6205 7.01495 5.60588 6.91832 5.34877C6.8651 5.20716 6.72488 5.05388 6.59903 4.99973C6.38316 4.90688 6.04271 4.91888 5.82201 5.02712C5.61441 5.12892 5.50091 5.2831 5.41892 5.57457C5.37969 5.71407 5.37859 5.75087 5.37259 7.11322L5.36645 8.50895H4.62045H3.87444V6.12827V3.74759H4.59289H5.31133L5.31643 4.07745L5.32153 4.40731L5.39451 4.29684C5.54144 4.07446 5.83079 3.84139 6.08183 3.74322C6.32238 3.64915 6.41972 3.6355 6.79661 3.64298C7.10375 3.64909 7.17612 3.65652 7.33569 3.69831ZM2.95951 6.12827V8.50895H2.21263H1.46575V6.12827V3.74759H2.21263H2.95951V6.12827Z" fill="#261447"/>
</svg>
