<svg width="6" height="10" viewBox="0 0 6 10" fill="none" xmlns="http://www.w3.org/2000/svg">
<path d="M2.25781 4.49219C2.46615 4.6875 2.71354 4.78516 3 4.78516C3.28646 4.78516 3.52734 4.6875 3.72266 4.49219C3.93099 4.28385 4.03516 4.03646 4.03516 3.75C4.03516 3.46354 3.93099 3.22266 3.72266 3.02734C3.52734 2.81901 3.28646 2.71484 3 2.71484C2.71354 2.71484 2.46615 2.81901 2.25781 3.02734C2.0625 3.22266 1.96484 3.46354 1.96484 3.75C1.96484 4.03646 2.0625 4.28385 2.25781 4.49219ZM0.929688 1.69922C1.5026 1.1263 2.19271 0.839844 3 0.839844C3.80729 0.839844 4.49089 1.1263 5.05078 1.69922C5.6237 2.25911 5.91016 2.94271 5.91016 3.75C5.91016 4.15365 5.80599 4.61589 5.59766 5.13672C5.40234 5.65755 5.16146 6.14583 4.875 6.60156C4.58854 7.05729 4.30208 7.48698 4.01562 7.89062C3.74219 8.28125 3.50781 8.59375 3.3125 8.82812L3 9.16016C2.92188 9.06901 2.81771 8.95182 2.6875 8.80859C2.55729 8.65234 2.32292 8.35286 1.98438 7.91016C1.64583 7.45443 1.34635 7.01823 1.08594 6.60156C0.838542 6.17188 0.610677 5.6901 0.402344 5.15625C0.19401 4.6224 0.0898438 4.15365 0.0898438 3.75C0.0898438 2.94271 0.369792 2.25911 0.929688 1.69922Z" fill="#FA4616"/>
</svg>
