<svg width="105" height="73" viewBox="0 0 105 73" fill="none" xmlns="http://www.w3.org/2000/svg">
<path fill-rule="evenodd" clip-rule="evenodd" d="M34.3052 0.0152268C34.2017 0.0235047 33.8257 0.0509993 33.4695 0.0762552C25.5802 0.636066 18.1119 3.84504 12.0548 9.27759C11.3984 9.86642 9.95845 11.312 9.34622 11.997C3.29902 18.7626 0 27.4121 0 36.5012C0 44.8115 2.78812 52.8164 7.94556 59.3134C9.39892 61.1442 11.3668 63.1588 13.1621 64.6539C21.2693 71.405 31.802 74.2567 42.0905 72.4861C45.6222 71.8784 48.9198 70.7889 52.1472 69.1635C60.2261 65.0948 66.5009 58.1939 69.7685 49.7838C70.0531 49.0512 70.5924 47.4696 70.7452 46.9194C70.8868 46.4092 70.8498 46.1347 70.6096 45.9138C70.3463 45.6718 70.0431 45.626 69.7373 45.7821C69.5073 45.8996 69.3965 46.0636 69.2806 46.4581C68.2872 49.8393 66.7026 53.2046 64.7319 56.1189C62.921 58.7969 60.7299 61.2197 58.1642 63.3814C53.357 67.4315 47.2382 70.1907 41.0743 71.0877C39.1783 71.3636 38.2618 71.4259 36.1019 71.4254C34.1109 71.4249 33.3856 71.3828 31.7563 71.1731C25.5409 70.3734 19.6655 67.885 14.7708 63.9791C13.6634 63.0954 12.9228 62.4324 11.8714 61.3831C10.1024 59.6179 8.79805 58.0375 7.45697 56.0344C4.40206 51.4715 2.4762 46.3162 1.80079 40.8936C1.58569 39.1665 1.56897 38.8507 1.56805 36.5012C1.56718 34.1919 1.58172 33.8992 1.77886 32.2567C2.50323 26.2212 4.79441 20.4564 8.40269 15.5907C11.6804 11.1706 15.8872 7.62025 20.746 5.17321C21.1367 4.97645 21.541 4.77689 21.6444 4.7298C21.7478 4.68267 22.0299 4.5544 22.2712 4.44472C22.914 4.15259 24.1649 3.66192 25.0115 3.36991C32.6776 0.725603 41.2511 0.930309 48.8044 3.93808C52.5211 5.41804 55.814 7.44067 58.8954 10.1363C59.6582 10.8036 61.5155 12.684 62.1809 13.4626C63.8201 15.3809 65.118 17.2536 66.3634 19.4974C66.7822 20.2519 67.5363 21.8043 67.8943 22.6485C68.0617 23.0434 68.2302 23.4018 68.2687 23.4449C68.5082 23.713 69.0118 23.7603 69.2958 23.5414C69.504 23.3809 69.5883 23.2014 69.5864 22.923C69.5851 22.7294 69.5336 22.5713 69.2768 21.9728C66.3812 15.2239 61.5253 9.482 55.4273 5.5964C50.4998 2.45669 45.0325 0.616765 39.0686 0.0912061C38.3518 0.0280242 34.8429 -0.0279362 34.3052 0.0152268ZM91.8896 26.1751C91.6858 26.2238 91.5425 26.3439 91.4352 26.556L91.3412 26.742L91.3414 32.8253C91.3416 39.3544 91.3395 39.2868 91.5529 39.9424C91.8109 40.7349 92.3373 41.4051 92.9426 41.7116C93.3293 41.9075 93.6326 41.9707 94.1809 41.9696C94.8383 41.9683 95.0496 41.8704 95.2047 41.4952C95.2949 41.2769 95.2847 41.0481 95.175 40.8311C95.0165 40.5176 94.9214 40.4744 94.3363 40.4499C93.9579 40.4341 93.7875 40.4086 93.6717 40.3506C93.3689 40.1987 93.092 39.7932 92.9399 39.2788C92.8736 39.0547 92.8662 38.5416 92.8463 32.8269C92.8301 28.2163 92.812 26.5968 92.7759 26.534C92.6791 26.3659 92.4865 26.2213 92.3023 26.1786C92.0894 26.1291 92.0827 26.1291 91.8896 26.1751ZM70.1234 27.1916C69.8268 27.2835 69.5719 27.6627 69.5719 28.0122C69.5719 28.6693 70.262 29.1261 70.8201 28.8383C71.4323 28.5226 71.495 27.6265 70.9296 27.2733C70.7558 27.1647 70.3447 27.123 70.1234 27.1916ZM51.9782 30.822C51.3342 30.9132 50.4826 31.2469 49.9275 31.6257C49.7809 31.7256 49.5364 31.9284 49.3842 32.0762C49.0597 32.3912 49.0551 32.3877 49.0551 31.8267C49.0551 31.3846 48.9931 31.2117 48.7736 31.0425C48.6663 30.9598 48.5663 30.9266 48.3848 30.9133C48.0554 30.8892 47.8 31.011 47.6548 31.2614L47.5509 31.4406V36.4352C47.5509 41.994 47.5302 41.6002 47.835 41.8352C47.9558 41.9283 48.0344 41.9511 48.2782 41.9631C48.5343 41.9757 48.594 41.9643 48.717 41.8791C48.7953 41.8249 48.8987 41.7268 48.9468 41.6613C49.0334 41.5433 49.0345 41.5076 49.0566 38.177C49.0767 35.1552 49.0863 34.786 49.1513 34.5585C49.4599 33.4767 50.3407 32.673 51.5622 32.3585C52.0028 32.2451 53.2044 32.2451 53.6271 32.3586C54.9751 32.7206 55.8051 33.593 56.0793 34.9361C56.1511 35.2876 56.1576 35.5573 56.1598 38.2539C56.1611 39.8683 56.178 41.272 56.1974 41.3733C56.2363 41.5769 56.3341 41.7304 56.5089 41.8623C56.6023 41.9328 56.6862 41.9494 56.9483 41.9494C57.2369 41.9494 57.2887 41.9368 57.4221 41.834C57.7209 41.6036 57.7114 41.7323 57.6927 38.1675C57.6768 35.1415 57.6716 34.9616 57.5903 34.6007C57.1388 32.5961 55.9154 31.3472 53.9648 30.8998C53.5335 30.8009 52.4321 30.7578 51.9782 30.822ZM78.6596 30.8213C77.75 30.9601 76.7832 31.5017 76.1794 32.2108L75.9227 32.5123V32.0543C75.9227 31.4637 75.8507 31.2041 75.6426 31.0437C75.5053 30.9378 75.4577 30.9264 75.153 30.9264C74.8664 30.9264 74.7948 30.9412 74.679 31.0247C74.3754 31.2435 74.3975 30.8181 74.3975 36.4379C74.3975 41.453 74.3981 41.4858 74.4834 41.6325C74.5306 41.7137 74.634 41.8246 74.7132 41.8789C74.8393 41.9654 74.8971 41.9759 75.1782 41.9634C75.5384 41.9473 75.6735 41.8766 75.8182 41.6282C75.8995 41.4888 75.9024 41.3889 75.9227 37.9794L75.9436 34.474L76.0739 34.1492C76.6207 32.7869 78.0374 32.0852 79.9052 32.2517C80.71 32.3235 80.9263 32.2676 81.0912 31.9452C81.1747 31.7821 81.1742 31.5057 81.0902 31.3414C80.996 31.1575 80.8403 31.0553 80.4526 30.9235C80.1674 30.8264 80.0389 30.8091 79.5162 30.797C79.1829 30.7894 78.7975 30.8003 78.6596 30.8213ZM15.8155 30.8884C13.8514 31.2415 12.2592 32.6411 11.6403 34.5585C11.4239 35.229 11.3863 35.5075 11.3863 36.4379C11.3863 37.1241 11.4027 37.3825 11.4652 37.6838C11.8653 39.6119 13.1559 41.1287 14.9295 41.7553C15.5899 41.9885 16.1005 42.069 16.9227 42.0693C17.9939 42.0698 18.6338 41.93 19.4925 41.5082C21.0449 40.7455 22.1249 39.2715 22.4183 37.5149C22.5126 36.9504 22.5129 35.9621 22.4188 35.4032C22.0317 33.1015 20.3387 31.3433 18.084 30.9015C17.5747 30.8017 16.3375 30.7946 15.8155 30.8884ZM28.4336 30.9042C26.1302 31.3709 24.4461 33.1757 24.0879 35.5612C24.036 35.9069 24.0262 36.7753 24.0264 40.9883C24.0266 44.5272 24.0402 46.0536 24.0729 46.1728C24.1391 46.4145 24.264 46.5722 24.4607 46.6625C24.6703 46.7587 24.8978 46.7642 25.1019 46.678C25.3004 46.5942 25.3953 46.5053 25.493 46.3118C25.5685 46.1623 25.5722 46.0147 25.5722 43.1125C25.5722 41.4391 25.5865 40.07 25.604 40.07C25.6214 40.07 25.7202 40.1769 25.8233 40.3077C26.1744 40.7524 26.7815 41.2289 27.3898 41.5373C29.0246 42.3661 31.1589 42.2492 32.6766 41.2478C33.9583 40.4021 34.7869 39.1372 35.0804 37.5782C35.1834 37.0316 35.1853 35.8926 35.0842 35.3609C34.6438 33.0461 33.0065 31.3638 30.7485 30.9063C30.1827 30.7916 28.9947 30.7906 28.4336 30.9042ZM40.2595 30.9058C38.5092 31.2686 37.2054 32.4042 36.5166 34.1658C36.1861 35.011 36.0525 36.4161 36.205 37.4423C36.3825 38.6371 36.9043 39.7021 37.7094 40.5135C38.4655 41.2753 39.3574 41.7463 40.4808 41.9769C41.1239 42.1089 42.1761 42.1072 42.7627 41.9732C43.831 41.729 44.9676 41.1806 45.3941 40.7035C45.5281 40.5535 45.5452 40.5087 45.5452 40.3084C45.5452 40.0231 45.4279 39.8327 45.1688 39.6975C44.8673 39.5402 44.6623 39.5855 44.172 39.9174C43.7159 40.2262 43.2155 40.449 42.6759 40.5836C42.2349 40.6936 41.2179 40.7167 40.8027 40.6261C39.9315 40.436 39.2785 40.0785 38.6895 39.4691C38.1153 38.875 37.7064 38.0028 37.62 37.1875L37.5942 36.9447H41.7725H45.9507L46.0889 36.8497C46.3747 36.653 46.4024 36.5749 46.3968 35.9802C46.3724 33.3811 44.7729 31.3395 42.4058 30.8856C41.9182 30.7921 40.7554 30.8031 40.2595 30.9058ZM63.1902 30.9085C61.4759 31.2725 60.1254 32.442 59.4578 34.1407C59.0233 35.2461 58.931 36.7825 59.2282 37.9624C59.6918 39.8026 61.0299 41.27 62.7396 41.8131C63.3973 42.0221 63.7315 42.0696 64.5364 42.0687C65.6 42.0676 66.2304 41.9313 67.0434 41.5266C67.4752 41.3116 68.1271 40.8287 68.2655 40.6211C68.4423 40.356 68.3749 39.9859 68.1085 39.7594C67.8249 39.5181 67.4852 39.5271 67.1483 39.7848C67.0495 39.8604 66.9103 39.9668 66.8389 40.0214C66.7675 40.076 66.5587 40.1946 66.3749 40.2849C65.3503 40.7886 63.8722 40.8072 62.8302 40.3297C61.9722 39.9365 61.2182 39.1289 60.8769 38.2374C60.6698 37.6966 60.5886 37.3045 60.5611 36.7124C60.4386 34.0771 61.9978 32.2156 64.3274 32.2156C65.4213 32.2156 66.2807 32.5816 67.117 33.4036C67.4738 33.7543 67.713 33.8823 67.9356 33.8414C68.3009 33.7745 68.6072 33.3881 68.5486 33.0683C68.469 32.6346 67.4807 31.7237 66.6256 31.2959C66.294 31.1301 65.7879 30.9665 65.357 30.886C64.8424 30.7899 63.6927 30.8019 63.1902 30.9085ZM84.8308 30.9093C83.4163 31.2095 82.208 32.0951 81.4699 33.3723C80.5181 35.0196 80.4408 37.3706 81.2823 39.0775C82.0441 40.6226 83.4027 41.6616 85.0997 41.9968C85.6098 42.0976 86.787 42.0962 87.3042 41.9943C88.1214 41.8331 88.8265 41.5217 89.4399 41.0509C89.8884 40.7066 90.0041 40.5514 90.0041 40.2939C90.0041 40.0714 89.9271 39.9075 89.753 39.7594C89.441 39.494 89.1129 39.536 88.642 39.9017C88.0813 40.3369 87.4067 40.5872 86.5966 40.6607C84.5221 40.8487 82.8656 39.6744 82.3289 37.6353C82.2305 37.2613 82.2193 37.1424 82.2179 36.459C82.2167 35.8321 82.2318 35.6317 82.3043 35.3162C82.6062 34.0012 83.2871 33.0841 84.34 32.5742C84.9305 32.2882 85.1869 32.2361 85.9928 32.2382C86.7922 32.2402 87.1052 32.3067 87.678 32.5965C88.0907 32.8053 88.3706 33.0136 88.8171 33.4442C89.1957 33.8093 89.3893 33.8972 89.6529 33.8237C89.9958 33.728 90.2577 33.3586 90.1976 33.0552C90.1605 32.8673 89.9323 32.5705 89.5268 32.1827C88.8056 31.4925 87.9804 31.0689 87.0015 30.886C86.4848 30.7895 85.3373 30.8018 84.8308 30.9093ZM98.8416 30.9023C96.8747 31.3136 95.4212 32.7492 94.9144 34.7814C94.759 35.4048 94.7108 35.9416 94.7392 36.733C94.7953 38.2931 95.3064 39.5291 96.3114 40.5346C97.0551 41.2787 97.952 41.7489 99.0629 41.9769C99.706 42.1089 100.758 42.1072 101.345 41.9732C102.39 41.7343 103.506 41.2021 103.96 40.7255C104.096 40.5834 104.106 40.5526 104.106 40.3072C104.106 40.0837 104.089 40.0187 103.992 39.891C103.923 39.7999 103.803 39.7108 103.69 39.6671C103.401 39.5556 103.214 39.6061 102.749 39.9209C102.298 40.2264 101.796 40.4494 101.258 40.5836C100.966 40.6565 100.759 40.6761 100.262 40.6782C99.4284 40.6816 98.918 40.5675 98.2775 40.2343C97.1572 39.6516 96.3346 38.444 96.2019 37.1875L96.1763 36.9447H100.355H104.533L104.671 36.8497C104.918 36.6796 104.982 36.5512 104.998 36.1922C105.017 35.7708 104.908 34.9437 104.773 34.4716C104.463 33.389 103.906 32.5098 103.126 31.8727C102.675 31.5035 101.921 31.1179 101.349 30.9628C100.971 30.8607 100.848 30.8484 100.074 30.8367C99.3655 30.826 99.1527 30.8373 98.8416 30.9023ZM71.0207 31.1171C70.8306 31.1748 70.6383 31.3485 70.5531 31.5392C70.4761 31.712 70.4758 31.7387 70.5451 32.5042C70.6794 33.9887 70.7101 34.857 70.6866 36.5012C70.6638 38.1021 70.6114 38.9244 70.4476 40.2503C70.3414 41.1099 70.3432 41.2739 70.4609 41.484C70.7391 41.9805 71.5393 41.9621 71.7795 41.4538C71.9147 41.1675 72.0825 39.6975 72.188 37.8738C72.2378 37.0134 72.2486 36.3622 72.23 35.3609C72.216 34.6176 72.1965 33.9524 72.1864 33.8827C72.1764 33.8131 72.1567 33.5512 72.1428 33.3007C72.1013 32.5549 72 31.6881 71.9364 31.5345C71.7922 31.1867 71.3924 31.0044 71.0207 31.1171ZM42.3487 32.3029C43.362 32.5535 44.1789 33.2594 44.6368 34.2802C44.7833 34.6069 44.9602 35.2817 44.9602 35.5142V35.6777H41.3041H37.6479V35.5801C37.6479 35.5265 37.6879 35.3227 37.7369 35.1272C38.1475 33.4859 39.3274 32.3941 40.8862 32.213C41.2979 32.1652 41.9552 32.2056 42.3487 32.3029ZM100.952 32.3033C101.922 32.5465 102.773 33.2863 103.214 34.2701C103.365 34.6054 103.542 35.2789 103.542 35.5142V35.6777H99.8862H96.23V35.5775C96.23 35.3529 96.4511 34.619 96.6261 34.2628C97.1997 33.0953 98.2242 32.3568 99.4683 32.214C99.8749 32.1673 100.578 32.2097 100.952 32.3033ZM17.7253 32.2768C19.4345 32.6074 20.6849 33.945 20.9363 35.712C21.0092 36.2246 20.9668 37.1696 20.8507 37.6204C20.5053 38.9614 19.5579 40.017 18.3049 40.457C17.6526 40.6861 16.7106 40.738 16.0172 40.5831C15.2993 40.4228 14.6245 40.0642 14.1136 39.5716C12.3261 37.8484 12.4457 34.6361 14.3543 33.1031C14.6708 32.8489 15.2584 32.5242 15.6121 32.4081C16.2007 32.2149 17.1123 32.1582 17.7253 32.2768ZM30.3851 32.2787C31.0757 32.4239 31.6289 32.6812 32.1393 33.0947C32.8826 33.697 33.3718 34.5128 33.5996 35.5299C33.6741 35.8628 33.675 37.0531 33.6009 37.367C33.3384 38.4797 32.8325 39.2918 32.0279 39.8921C30.9565 40.6916 29.4776 40.8968 28.1504 40.4303C27.49 40.1982 26.6614 39.5376 26.2543 38.9185C25.3064 37.4774 25.3063 35.4016 26.2538 33.9883C26.8401 33.1139 27.682 32.5386 28.7269 32.2985C29.1559 32.1998 29.964 32.1903 30.3851 32.2787Z" fill="#FA4616"/>
<path fill-rule="evenodd" clip-rule="evenodd" d="M34.3052 0.0152268C34.2017 0.0235047 33.8257 0.0509993 33.4695 0.0762552C25.5802 0.636066 18.1119 3.84504 12.0548 9.27759C11.3984 9.86642 9.95845 11.312 9.34622 11.997C3.29902 18.7626 0 27.4121 0 36.5012C0 44.8115 2.78812 52.8164 7.94556 59.3134C9.39892 61.1442 11.3668 63.1588 13.1621 64.6539C21.2693 71.405 31.802 74.2567 42.0905 72.4861C45.6222 71.8784 48.9198 70.7889 52.1472 69.1635C60.2261 65.0948 66.5009 58.1939 69.7685 49.7838C70.0531 49.0512 70.5924 47.4696 70.7452 46.9194C70.8868 46.4092 70.8498 46.1347 70.6096 45.9138C70.3463 45.6718 70.0431 45.626 69.7373 45.7821C69.5073 45.8996 69.3965 46.0636 69.2806 46.4581C68.2872 49.8393 66.7026 53.2046 64.7319 56.1189C62.921 58.7969 60.7299 61.2197 58.1642 63.3814C53.357 67.4315 47.2382 70.1907 41.0743 71.0877C39.1783 71.3636 38.2618 71.4259 36.1019 71.4254C34.1109 71.4249 33.3856 71.3828 31.7563 71.1731C25.5409 70.3734 19.6655 67.885 14.7708 63.9791C13.6634 63.0954 12.9228 62.4324 11.8714 61.3831C10.1024 59.6179 8.79805 58.0375 7.45697 56.0344C4.40206 51.4715 2.4762 46.3162 1.80079 40.8936C1.58569 39.1665 1.56897 38.8507 1.56805 36.5012C1.56718 34.1919 1.58172 33.8992 1.77886 32.2567C2.50323 26.2212 4.79441 20.4564 8.40269 15.5907C11.6804 11.1706 15.8872 7.62025 20.746 5.17321C21.1367 4.97645 21.541 4.77689 21.6444 4.7298C21.7478 4.68267 22.0299 4.5544 22.2712 4.44472C22.914 4.15259 24.1649 3.66192 25.0115 3.36991C32.6776 0.725603 41.2511 0.930309 48.8044 3.93808C52.5211 5.41804 55.814 7.44067 58.8954 10.1363C59.6582 10.8036 61.5155 12.684 62.1809 13.4626C63.8201 15.3809 65.118 17.2536 66.3634 19.4974C66.7822 20.2519 67.5363 21.8043 67.8943 22.6485C68.0617 23.0434 68.2302 23.4018 68.2687 23.4449C68.5082 23.713 69.0118 23.7603 69.2958 23.5414C69.504 23.3809 69.5883 23.2014 69.5864 22.923C69.5851 22.7294 69.5336 22.5713 69.2768 21.9728C66.3812 15.2239 61.5253 9.482 55.4273 5.5964C50.4998 2.45669 45.0325 0.616765 39.0686 0.0912061C38.3518 0.0280242 34.8429 -0.0279362 34.3052 0.0152268ZM91.8896 26.1751C91.6858 26.2238 91.5425 26.3439 91.4352 26.556L91.3412 26.742L91.3414 32.8253C91.3416 39.3544 91.3395 39.2868 91.5529 39.9424C91.8109 40.7349 92.3373 41.4051 92.9426 41.7116C93.3293 41.9075 93.6326 41.9707 94.1809 41.9696C94.8383 41.9683 95.0496 41.8704 95.2047 41.4952C95.2949 41.2769 95.2847 41.0481 95.175 40.8311C95.0165 40.5176 94.9214 40.4744 94.3363 40.4499C93.9579 40.4341 93.7875 40.4086 93.6717 40.3506C93.3689 40.1987 93.092 39.7932 92.9399 39.2788C92.8736 39.0547 92.8662 38.5416 92.8463 32.8269C92.8301 28.2163 92.812 26.5968 92.7759 26.534C92.6791 26.3659 92.4865 26.2213 92.3023 26.1786C92.0894 26.1291 92.0827 26.1291 91.8896 26.1751ZM51.9782 30.822C51.3342 30.9132 50.4826 31.2469 49.9275 31.6257C49.7809 31.7256 49.5364 31.9284 49.3842 32.0762C49.0597 32.3912 49.0551 32.3877 49.0551 31.8267C49.0551 31.3846 48.9931 31.2117 48.7736 31.0425C48.6663 30.9598 48.5663 30.9266 48.3848 30.9133C48.0554 30.8892 47.8 31.011 47.6548 31.2614L47.5509 31.4406V36.4352C47.5509 41.994 47.5302 41.6002 47.835 41.8352C47.9558 41.9283 48.0344 41.9511 48.2782 41.9631C48.5343 41.9757 48.594 41.9643 48.717 41.8791C48.7953 41.8249 48.8987 41.7268 48.9468 41.6613C49.0334 41.5433 49.0345 41.5076 49.0566 38.177C49.0767 35.1552 49.0863 34.786 49.1513 34.5585C49.4599 33.4767 50.3407 32.673 51.5622 32.3585C52.0028 32.2451 53.2044 32.2451 53.6271 32.3586C54.9751 32.7206 55.8051 33.593 56.0793 34.9361C56.1511 35.2876 56.1576 35.5573 56.1598 38.2539C56.1611 39.8683 56.178 41.272 56.1974 41.3733C56.2363 41.5769 56.3341 41.7304 56.5089 41.8623C56.6023 41.9328 56.6862 41.9494 56.9483 41.9494C57.2369 41.9494 57.2887 41.9368 57.4221 41.834C57.7209 41.6036 57.7114 41.7323 57.6927 38.1675C57.6768 35.1415 57.6716 34.9616 57.5903 34.6007C57.1388 32.5961 55.9154 31.3472 53.9648 30.8998C53.5335 30.8009 52.4321 30.7578 51.9782 30.822ZM78.6596 30.8213C77.75 30.9601 76.7832 31.5017 76.1794 32.2108L75.9227 32.5123V32.0543C75.9227 31.4637 75.8507 31.2041 75.6426 31.0437C75.5053 30.9378 75.4577 30.9264 75.153 30.9264C74.8664 30.9264 74.7948 30.9412 74.679 31.0247C74.3754 31.2435 74.3975 30.8181 74.3975 36.4379C74.3975 41.453 74.3981 41.4858 74.4834 41.6325C74.5306 41.7137 74.634 41.8246 74.7132 41.8789C74.8393 41.9654 74.8971 41.9759 75.1782 41.9634C75.5384 41.9473 75.6735 41.8766 75.8182 41.6282C75.8995 41.4888 75.9024 41.3889 75.9227 37.9794L75.9436 34.474L76.0739 34.1492C76.6207 32.7869 78.0374 32.0852 79.9052 32.2517C80.71 32.3235 80.9263 32.2676 81.0912 31.9452C81.1747 31.7821 81.1742 31.5057 81.0902 31.3414C80.996 31.1575 80.8403 31.0553 80.4526 30.9235C80.1674 30.8264 80.0389 30.8091 79.5162 30.797C79.1829 30.7894 78.7975 30.8003 78.6596 30.8213ZM15.8155 30.8884C13.8514 31.2415 12.2592 32.6411 11.6403 34.5585C11.4239 35.229 11.3863 35.5075 11.3863 36.4379C11.3863 37.1241 11.4027 37.3825 11.4652 37.6838C11.8653 39.6119 13.1559 41.1287 14.9295 41.7553C15.5899 41.9885 16.1005 42.069 16.9227 42.0693C17.9939 42.0698 18.6338 41.93 19.4925 41.5082C21.0449 40.7455 22.1249 39.2715 22.4183 37.5149C22.5126 36.9504 22.5129 35.9621 22.4188 35.4032C22.0317 33.1015 20.3387 31.3433 18.084 30.9015C17.5747 30.8017 16.3375 30.7946 15.8155 30.8884ZM28.4336 30.9042C26.1302 31.3709 24.4461 33.1757 24.0879 35.5612C24.036 35.9069 24.0262 36.7753 24.0264 40.9883C24.0266 44.5272 24.0402 46.0536 24.0729 46.1728C24.1391 46.4145 24.264 46.5722 24.4607 46.6625C24.6703 46.7587 24.8978 46.7642 25.1019 46.678C25.3004 46.5942 25.3953 46.5053 25.493 46.3118C25.5685 46.1623 25.5722 46.0147 25.5722 43.1125C25.5722 41.4391 25.5865 40.07 25.604 40.07C25.6214 40.07 25.7202 40.1769 25.8233 40.3077C26.1744 40.7524 26.7815 41.2289 27.3898 41.5373C29.0246 42.3661 31.1589 42.2492 32.6766 41.2478C33.9583 40.4021 34.7869 39.1372 35.0804 37.5782C35.1834 37.0316 35.1853 35.8926 35.0842 35.3609C34.6438 33.0461 33.0065 31.3638 30.7485 30.9063C30.1827 30.7916 28.9947 30.7906 28.4336 30.9042ZM40.2595 30.9058C38.5092 31.2686 37.2054 32.4042 36.5166 34.1658C36.1861 35.011 36.0525 36.4161 36.205 37.4423C36.3825 38.6371 36.9043 39.7021 37.7094 40.5135C38.4655 41.2753 39.3574 41.7463 40.4808 41.9769C41.1239 42.1089 42.1761 42.1072 42.7627 41.9732C43.831 41.729 44.9676 41.1806 45.3941 40.7035C45.5281 40.5535 45.5452 40.5087 45.5452 40.3084C45.5452 40.0231 45.4279 39.8327 45.1688 39.6975C44.8673 39.5402 44.6623 39.5855 44.172 39.9174C43.7159 40.2262 43.2155 40.449 42.6759 40.5836C42.2349 40.6936 41.2179 40.7167 40.8027 40.6261C39.9315 40.436 39.2785 40.0785 38.6895 39.4691C38.1153 38.875 37.7064 38.0028 37.62 37.1875L37.5942 36.9447H41.7725H45.9507L46.0889 36.8497C46.3747 36.653 46.4024 36.5749 46.3968 35.9802C46.3724 33.3811 44.7729 31.3395 42.4058 30.8856C41.9182 30.7921 40.7554 30.8031 40.2595 30.9058ZM63.1902 30.9085C61.4759 31.2725 60.1254 32.442 59.4578 34.1407C59.0233 35.2461 58.931 36.7825 59.2282 37.9624C59.6918 39.8026 61.0299 41.27 62.7396 41.8131C63.3973 42.0221 63.7315 42.0696 64.5364 42.0687C65.6 42.0676 66.2304 41.9313 67.0434 41.5266C67.4752 41.3116 68.1271 40.8287 68.2655 40.6211C68.4423 40.356 68.3749 39.9859 68.1085 39.7594C67.8249 39.5181 67.4852 39.5271 67.1483 39.7848C67.0495 39.8604 66.9103 39.9668 66.8389 40.0214C66.7675 40.076 66.5587 40.1946 66.3749 40.2849C65.3503 40.7886 63.8722 40.8072 62.8302 40.3297C61.9722 39.9365 61.2182 39.1289 60.8769 38.2374C60.6698 37.6966 60.5886 37.3045 60.5611 36.7124C60.4386 34.0771 61.9978 32.2156 64.3274 32.2156C65.4213 32.2156 66.2807 32.5816 67.117 33.4036C67.4738 33.7543 67.713 33.8823 67.9356 33.8414C68.3009 33.7745 68.6072 33.3881 68.5486 33.0683C68.469 32.6346 67.4807 31.7237 66.6256 31.2959C66.294 31.1301 65.7879 30.9665 65.357 30.886C64.8424 30.7899 63.6927 30.8019 63.1902 30.9085ZM84.8308 30.9093C83.4163 31.2095 82.208 32.0951 81.4699 33.3723C80.5181 35.0196 80.4408 37.3706 81.2823 39.0775C82.0441 40.6226 83.4027 41.6616 85.0997 41.9968C85.6098 42.0976 86.787 42.0962 87.3042 41.9943C88.1214 41.8331 88.8265 41.5217 89.4399 41.0509C89.8884 40.7066 90.0041 40.5514 90.0041 40.2939C90.0041 40.0714 89.9271 39.9075 89.753 39.7594C89.441 39.494 89.1129 39.536 88.642 39.9017C88.0813 40.3369 87.4067 40.5872 86.5966 40.6607C84.5221 40.8487 82.8656 39.6744 82.3289 37.6353C82.2305 37.2613 82.2193 37.1424 82.2179 36.459C82.2167 35.8321 82.2318 35.6317 82.3043 35.3162C82.6062 34.0012 83.2871 33.0841 84.34 32.5742C84.9305 32.2882 85.1869 32.2361 85.9928 32.2382C86.7922 32.2402 87.1052 32.3067 87.678 32.5965C88.0907 32.8053 88.3706 33.0136 88.8171 33.4442C89.1957 33.8093 89.3893 33.8972 89.6529 33.8237C89.9958 33.728 90.2577 33.3586 90.1976 33.0552C90.1605 32.8673 89.9323 32.5705 89.5268 32.1827C88.8056 31.4925 87.9804 31.0689 87.0015 30.886C86.4848 30.7895 85.3373 30.8018 84.8308 30.9093ZM98.8416 30.9023C96.8747 31.3136 95.4212 32.7492 94.9144 34.7814C94.759 35.4048 94.7108 35.9416 94.7392 36.733C94.7953 38.2931 95.3064 39.5291 96.3114 40.5346C97.0551 41.2787 97.952 41.7489 99.0629 41.9769C99.706 42.1089 100.758 42.1072 101.345 41.9732C102.39 41.7343 103.506 41.2021 103.96 40.7255C104.096 40.5834 104.106 40.5526 104.106 40.3072C104.106 40.0837 104.089 40.0187 103.992 39.891C103.923 39.7999 103.803 39.7108 103.69 39.6671C103.401 39.5556 103.214 39.6061 102.749 39.9209C102.298 40.2264 101.796 40.4494 101.258 40.5836C100.966 40.6565 100.759 40.6761 100.262 40.6782C99.4284 40.6816 98.918 40.5675 98.2775 40.2343C97.1572 39.6516 96.3346 38.444 96.2019 37.1875L96.1763 36.9447H100.355H104.533L104.671 36.8497C104.918 36.6796 104.982 36.5512 104.998 36.1922C105.017 35.7708 104.908 34.9437 104.773 34.4716C104.463 33.389 103.906 32.5098 103.126 31.8727C102.675 31.5035 101.921 31.1179 101.349 30.9628C100.971 30.8607 100.848 30.8484 100.074 30.8367C99.3655 30.826 99.1527 30.8373 98.8416 30.9023ZM71.0207 31.1171C70.8306 31.1748 70.6383 31.3485 70.5531 31.5392C70.4761 31.712 70.4758 31.7387 70.5451 32.5042C70.6794 33.9887 70.7101 34.857 70.6866 36.5012C70.6638 38.1021 70.6114 38.9244 70.4476 40.2503C70.3414 41.1099 70.3432 41.2739 70.4609 41.484C70.7391 41.9805 71.5393 41.9621 71.7795 41.4538C71.9147 41.1675 72.0825 39.6975 72.188 37.8738C72.2378 37.0134 72.2486 36.3622 72.23 35.3609C72.216 34.6176 72.1965 33.9524 72.1864 33.8827C72.1764 33.8131 72.1567 33.5512 72.1428 33.3007C72.1013 32.5549 72 31.6881 71.9364 31.5345C71.7922 31.1867 71.3924 31.0044 71.0207 31.1171ZM42.3487 32.3029C43.362 32.5535 44.1789 33.2594 44.6368 34.2802C44.7833 34.6069 44.9602 35.2817 44.9602 35.5142V35.6777H41.3041H37.6479V35.5801C37.6479 35.5265 37.6879 35.3227 37.7369 35.1272C38.1475 33.4859 39.3274 32.3941 40.8862 32.213C41.2979 32.1652 41.9552 32.2056 42.3487 32.3029ZM100.952 32.3033C101.922 32.5465 102.773 33.2863 103.214 34.2701C103.365 34.6054 103.542 35.2789 103.542 35.5142V35.6777H99.8862H96.23V35.5775C96.23 35.3529 96.4511 34.619 96.6261 34.2628C97.1997 33.0953 98.2242 32.3568 99.4683 32.214C99.8749 32.1673 100.578 32.2097 100.952 32.3033ZM17.7253 32.2768C19.4345 32.6074 20.6849 33.945 20.9363 35.712C21.0092 36.2246 20.9668 37.1696 20.8507 37.6204C20.5053 38.9614 19.5579 40.017 18.3049 40.457C17.6526 40.6861 16.7106 40.738 16.0172 40.5831C15.2993 40.4228 14.6245 40.0642 14.1136 39.5716C12.3261 37.8484 12.4457 34.6361 14.3543 33.1031C14.6708 32.8489 15.2584 32.5242 15.6121 32.4081C16.2007 32.2149 17.1123 32.1582 17.7253 32.2768ZM30.3851 32.2787C31.0757 32.4239 31.6289 32.6812 32.1393 33.0947C32.8826 33.697 33.3718 34.5128 33.5996 35.5299C33.6741 35.8628 33.675 37.0531 33.6009 37.367C33.3384 38.4797 32.8325 39.2918 32.0279 39.8921C30.9565 40.6916 29.4776 40.8968 28.1504 40.4303C27.49 40.1982 26.6614 39.5376 26.2543 38.9185C25.3064 37.4774 25.3063 35.4016 26.2538 33.9883C26.8401 33.1139 27.682 32.5386 28.7269 32.2985C29.1559 32.1998 29.964 32.1903 30.3851 32.2787Z" fill="#101920"/>
</svg>
