<svg width="8" height="8" viewBox="0 0 8 8" fill="none" xmlns="http://www.w3.org/2000/svg">
<path d="M1.75391 3.49219C2.37891 4.70312 3.29688 5.62109 4.50781 6.24609L5.42578 5.32812C5.55599 5.19792 5.69922 5.16536 5.85547 5.23047C6.32422 5.38672 6.81901 5.46484 7.33984 5.46484C7.45703 5.46484 7.55469 5.50391 7.63281 5.58203C7.71094 5.66016 7.75 5.75781 7.75 5.875V7.33984C7.75 7.45703 7.71094 7.55469 7.63281 7.63281C7.55469 7.71094 7.45703 7.75 7.33984 7.75C5.38672 7.75 3.71354 7.0599 2.32031 5.67969C0.940104 4.28646 0.25 2.61328 0.25 0.660156C0.25 0.542969 0.289062 0.445312 0.367188 0.367188C0.445312 0.289062 0.542969 0.25 0.660156 0.25H2.125C2.24219 0.25 2.33984 0.289062 2.41797 0.367188C2.49609 0.445312 2.53516 0.542969 2.53516 0.660156C2.53516 1.18099 2.61328 1.67578 2.76953 2.14453C2.82161 2.3138 2.78906 2.45703 2.67188 2.57422L1.75391 3.49219Z" fill="#FA4616"/>
</svg>
