<svg width="10" height="10" viewBox="0 0 10 10" fill="none" xmlns="http://www.w3.org/2000/svg">
<path d="M6.81641 5.83984H8.22266C8.30078 5.47526 8.33984 5.19531 8.33984 5C8.33984 4.80469 8.30078 4.52474 8.22266 4.16016H6.81641C6.85547 4.43359 6.875 4.71354 6.875 5C6.875 5.28646 6.85547 5.56641 6.81641 5.83984ZM6.07422 8.14453C6.39974 8.04036 6.73828 7.84505 7.08984 7.55859C7.44141 7.25911 7.70833 6.95964 7.89062 6.66016H6.66016C6.52995 7.18099 6.33464 7.67578 6.07422 8.14453ZM5.97656 5.83984C6.01562 5.56641 6.03516 5.28646 6.03516 5C6.03516 4.71354 6.01562 4.43359 5.97656 4.16016H4.02344C3.98438 4.43359 3.96484 4.71354 3.96484 5C3.96484 5.28646 3.98438 5.56641 4.02344 5.83984H5.97656ZM5 8.32031C5.36458 7.78646 5.63151 7.23307 5.80078 6.66016H4.19922C4.36849 7.23307 4.63542 7.78646 5 8.32031ZM3.33984 3.33984C3.49609 2.77995 3.69141 2.28516 3.92578 1.85547C3.60026 1.95964 3.25521 2.16146 2.89062 2.46094C2.53906 2.7474 2.27865 3.04036 2.10938 3.33984H3.33984ZM2.10938 6.66016C2.27865 6.95964 2.53906 7.25911 2.89062 7.55859C3.25521 7.84505 3.60026 8.04036 3.92578 8.14453C3.66536 7.67578 3.47005 7.18099 3.33984 6.66016H2.10938ZM1.77734 5.83984H3.18359C3.14453 5.56641 3.125 5.28646 3.125 5C3.125 4.71354 3.14453 4.43359 3.18359 4.16016H1.77734C1.69922 4.52474 1.66016 4.80469 1.66016 5C1.66016 5.19531 1.69922 5.47526 1.77734 5.83984ZM5 1.67969C4.63542 2.21354 4.36849 2.76693 4.19922 3.33984H5.80078C5.63151 2.76693 5.36458 2.21354 5 1.67969ZM7.89062 3.33984C7.70833 3.04036 7.44141 2.7474 7.08984 2.46094C6.73828 2.16146 6.39974 1.95964 6.07422 1.85547C6.30859 2.28516 6.50391 2.77995 6.66016 3.33984H7.89062ZM2.05078 2.07031C2.87109 1.25 3.85417 0.839844 5 0.839844C6.14583 0.839844 7.1224 1.25 7.92969 2.07031C8.75 2.8776 9.16016 3.85417 9.16016 5C9.16016 6.14583 8.75 7.12891 7.92969 7.94922C7.1224 8.75651 6.14583 9.16016 5 9.16016C3.85417 9.16016 2.87109 8.75651 2.05078 7.94922C1.24349 7.12891 0.839844 6.14583 0.839844 5C0.839844 3.85417 1.24349 2.8776 2.05078 2.07031Z" fill="#FA4616"/>
</svg>
